<?xml version="1.0" standalone="no"?>
<!DOCTYPE svg PUBLIC "-//W3C//DTD SVG 20010904//EN"
 "http://www.w3.org/TR/2001/REC-SVG-20010904/DTD/svg10.dtd">
<svg version="1.0" xmlns="http://www.w3.org/2000/svg"
 width="300.000000pt" height="300.000000pt" viewBox="0 0 300.000000 300.000000"
 preserveAspectRatio="xMidYMid meet">
<metadata>
Created by potrace 1.10, written by Peter Selinger 2001-2011
</metadata>
<g transform="translate(0.000000,300.000000) scale(0.100000,-0.100000)"
fill="#fff" stroke="currentColor">
<path d="M2084 2324 c-275 -280 -352 -353 -361 -342 -6 7 -41 84 -79 171 -62
145 -100 215 -110 204 -3 -2 27 -80 66 -173 39 -93 81 -193 93 -221 12 -29 24
-53 27 -52 8 2 710 724 726 748 12 16 12 21 2 21 -7 0 -171 -160 -364 -356z"/>
<path d="M2363 2459 c-243 -467 -410 -794 -408 -797 3 -4 360 19 364 24 2 2 1
7 -3 11 -7 7 -240 6 -266 -2 -8 -3 -21 -1 -29 4 -10 7 9 51 87 202 55 107 148
289 207 404 60 116 116 224 125 240 22 40 43 102 38 117 -2 6 -54 -85 -115
-203z"/>
<path d="M1504 2328 c-4 -7 -9 -116 -12 -242 -2 -127 -6 -233 -8 -235 -6 -6
-70 30 -189 106 -393 251 -601 375 -621 371 -20 -4 -3 -15 534 -351 l312 -196
0 279 c0 154 -2 280 -4 280 -3 0 -8 -5 -12 -12z"/>
<path d="M640 2305 c0 -16 41 -80 138 -218 59 -84 121 -171 137 -195 17 -23
61 -86 98 -140 37 -53 86 -123 108 -155 22 -32 39 -64 36 -70 -2 -7 -130 -72
-283 -146 -567 -273 -684 -334 -670 -348 4 -5 109 45 777 367 l235 113 -279
399 c-244 347 -297 418 -297 393z"/>
<path d="M2154 1565 c-93 -58 -170 -108 -171 -113 -1 -4 151 -133 338 -287
186 -154 368 -304 404 -334 66 -54 99 -63 54 -15 -19 22 -193 168 -514 435
-149 124 -225 193 -223 201 2 6 63 48 136 94 127 80 162 105 162 118 0 14 -26
0 -186 -99z"/>
<path d="M805 1135 c-264 -51 -507 -98 -540 -106 -60 -14 -60 -14 -21 -17 34
-3 82 3 186 23 14 3 97 18 185 35 88 16 219 41 290 54 213 41 334 60 342 53 5
-6 -20 -104 -75 -282 -8 -27 -17 -70 -19 -95 -3 -38 -2 -42 8 -26 9 15 84 257
136 439 3 9 1 16 -3 16 -5 -1 -225 -43 -489 -94z"/>
<path d="M1409 986 c-211 -199 -247 -236 -233 -236 18 0 63 36 146 115 190
181 272 255 283 255 7 0 15 -8 18 -17 8 -28 165 -456 230 -629 40 -106 69
-163 74 -149 8 24 -295 845 -312 845 -6 0 -99 -83 -206 -184z"/>
<path d="M1886 1063 c3 -16 54 -677 54 -710 0 -7 5 -13 11 -13 9 0 10 44 5
165 -4 91 -8 171 -11 178 -2 6 -6 66 -10 132 -3 66 -8 135 -12 153 -3 18 0 38
6 46 14 16 16 16 346 -99 447 -155 500 -171 510 -155 6 10 51 -7 -453 166
-235 81 -432 149 -439 151 -7 3 -10 -3 -7 -14z"/>
</g>
</svg>
