<svg id="Layer_1" data-name="Layer 1" xmlns="http://www.w3.org/2000/svg" viewBox="0 0 200 200"><defs><style>.cls-1{fill:#a0cbfa;}.cls-2{fill:#3391ff;}.cls-3{fill:#012169;}.cls-4{fill:#fff;}.cls-5{fill:#2567bf;}</style></defs><title>Privacidade</title><circle class="cls-1" cx="100" cy="100" r="100"/><path class="cls-2" d="M156.11,124.72a74.32,74.32,0,0,1-17.81,27.74c-8.94,8.73-20.64,15.66-34.79,20.61a9.85,9.85,0,0,1-1.44.39,10.57,10.57,0,0,1-1.94.21H100a10.39,10.39,0,0,1-2.07-.21,9.72,9.72,0,0,1-1.43-.39c-14.16-4.94-25.88-11.87-34.83-20.6a74.13,74.13,0,0,1-17.8-27.73c-7.2-19.51-6.79-41-6.46-58.28v-.27c.07-1.43.11-2.92.13-4.58a15.63,15.63,0,0,1,14.71-15.3c16.94-.94,30-6.47,41.24-17.38l.1-.09a9.42,9.42,0,0,1,12.81,0l.09.09c11.2,10.91,24.31,16.44,41.25,17.38a15.63,15.63,0,0,1,14.7,15.3c0,1.67.07,3.16.14,4.58v.11c.33,17.31.73,38.85-6.48,58.42Zm0,0"/><path class="cls-3" d="M156.11,124.72a74.32,74.32,0,0,1-17.81,27.74c-8.94,8.73-20.64,15.66-34.79,20.61a9.85,9.85,0,0,1-1.44.39,10.57,10.57,0,0,1-1.94.21V26.33a9.46,9.46,0,0,1,6.28,2.51l.09.09c11.2,10.91,24.31,16.44,41.25,17.38a15.63,15.63,0,0,1,14.7,15.3c0,1.67.07,3.16.14,4.58v.11c.33,17.31.73,38.85-6.48,58.42Zm0,0"/><path class="cls-4" d="M136.72,100a36.77,36.77,0,0,1-36.59,36.72H100a36.72,36.72,0,0,1,0-73.44h.13A36.77,36.77,0,0,1,136.72,100Zm0,0"/><path class="cls-5" d="M116.67,94.71l-16.54,16.54-3.58,3.58a4.33,4.33,0,0,1-6.11,0l-7.68-7.69A4.32,4.32,0,0,1,88.87,101l4.63,4.63,17-17.06a4.32,4.32,0,0,1,6.12,6.11Zm0,0"/></svg>